<?xml version="1.0" encoding="UTF-8" standalone="no"?><svg xmlns="http://www.w3.org/2000/svg" xmlns:xlink="http://www.w3.org/1999/xlink" contentScriptType="application/ecmascript" contentStyleType="text/css" height="680px" preserveAspectRatio="none" style="width:2570px;height:680px;background:#FFFFFF;" version="1.1" viewBox="0 0 2570 680" width="2570px" zoomAndPan="magnify"><defs><filter height="300%" id="f15audhxxifjjc" width="300%" x="-1" y="-1"><feGaussianBlur result="blurOut" stdDeviation="2.0"/><feColorMatrix in="blurOut" result="blurOut2" type="matrix" values="0 0 0 0 0 0 0 0 0 0 0 0 0 0 0 0 0 0 .4 0"/><feOffset dx="4.0" dy="4.0" in="blurOut2" result="blurOut3"/><feBlend in="SourceGraphic" in2="blurOut3" mode="normal"/></filter></defs><g><text fill="#000000" font-family="sans-serif" font-size="18" lengthAdjust="spacing" textLength="185" x="1183" y="16.708">US Counties Census</text><text fill="#000000" font-family="sans-serif" font-size="18" lengthAdjust="spacing" textLength="180" x="1188.5" y="37.6611">UML Class Notation</text><text fill="#000000" font-family="sans-serif" font-size="18" lengthAdjust="spacing" textLength="0" x="1281.5" y="58.6143"/><!--MD5=[b8c3349295d742255946c45c28d3bc5e]
class County--><rect codeLine="3" fill="#FEFECE" filter="url(#f15audhxxifjjc)" height="188.8516" id="County" style="stroke:#A80036;stroke-width:1.5;" width="113" x="1251" y="69.8594"/><ellipse cx="1284" cy="85.8594" fill="#ADD1B2" rx="11" ry="11" style="stroke:#A80036;stroke-width:1.0;"/><path d="M1286.3438,81.5313 C1285.4063,81.0938 1284.8125,80.9531 1283.9375,80.9531 C1281.3125,80.9531 1279.3125,83.0313 1279.3125,85.75 L1279.3125,86.875 C1279.3125,89.4531 1281.4219,91.3438 1284.3125,91.3438 C1285.5313,91.3438 1286.6875,91.0469 1287.4375,90.5 C1288.0156,90.0938 1288.3438,89.6406 1288.3438,89.25 C1288.3438,88.7969 1287.9531,88.4063 1287.4844,88.4063 C1287.2656,88.4063 1287.0625,88.4844 1286.875,88.6719 C1286.4219,89.1563 1286.4219,89.1563 1286.2344,89.25 C1285.8125,89.5156 1285.125,89.6406 1284.3594,89.6406 C1282.3125,89.6406 1281.0156,88.5469 1281.0156,86.8438 L1281.0156,85.75 C1281.0156,83.9688 1282.2656,82.6563 1284,82.6563 C1284.5781,82.6563 1285.1875,82.8125 1285.6563,83.0625 C1286.1406,83.3438 1286.3125,83.5625 1286.4063,83.9688 C1286.4688,84.375 1286.5,84.5 1286.6406,84.625 C1286.7813,84.7656 1287.0156,84.875 1287.2344,84.875 C1287.5,84.875 1287.7656,84.7344 1287.9375,84.5156 C1288.0469,84.3594 1288.0781,84.1719 1288.0781,83.75 L1288.0781,82.3281 C1288.0781,81.8906 1288.0625,81.7656 1287.9688,81.6094 C1287.8125,81.3438 1287.5313,81.2031 1287.2344,81.2031 C1286.9375,81.2031 1286.7344,81.2969 1286.5156,81.6094 L1286.3438,81.5313 Z " fill="#000000"/><text fill="#000000" font-family="sans-serif" font-size="12" lengthAdjust="spacing" textLength="41" x="1302" y="90.0137">County</text><line style="stroke:#A80036;stroke-width:1.5;" x1="1252" x2="1363" y1="101.8594" y2="101.8594"/><text fill="#000000" font-family="sans-serif" font-size="11" lengthAdjust="spacing" textLength="70" x="1257" y="116.0698">County: text</text><text fill="#000000" font-family="sans-serif" font-size="11" lengthAdjust="spacing" textLength="61" x="1257" y="128.8745">State: text</text><line style="stroke:#A80036;stroke-width:1.0;" x1="1252" x2="1363" y1="135.4688" y2="135.4688"/><text fill="#000000" font-family="sans-serif" font-size="11" lengthAdjust="spacing" textLength="44" x="1257" y="149.6792">Age: {}</text><text fill="#000000" font-family="sans-serif" font-size="11" lengthAdjust="spacing" textLength="76" x="1257" y="162.4839">Education: {}</text><text fill="#000000" font-family="sans-serif" font-size="11" lengthAdjust="spacing" textLength="93" x="1257" y="175.2886">Employment: {}</text><text fill="#000000" font-family="sans-serif" font-size="11" lengthAdjust="spacing" textLength="79" x="1257" y="188.0933">Ethnicities: {}</text><text fill="#000000" font-family="sans-serif" font-size="11" lengthAdjust="spacing" textLength="66" x="1257" y="200.8979">Housing: {}</text><text fill="#000000" font-family="sans-serif" font-size="11" lengthAdjust="spacing" textLength="63" x="1257" y="213.7026">Income: {}</text><text fill="#000000" font-family="sans-serif" font-size="11" lengthAdjust="spacing" textLength="101" x="1257" y="226.5073">Miscellaneous: {}</text><text fill="#000000" font-family="sans-serif" font-size="11" lengthAdjust="spacing" textLength="79" x="1257" y="239.312">Population: {}</text><text fill="#000000" font-family="sans-serif" font-size="11" lengthAdjust="spacing" textLength="53" x="1257" y="252.1167">Sales: {}</text><!--MD5=[1f3910dac391ec05d596e98e046560ac]
class Age--><rect codeLine="18" fill="#FEFECE" filter="url(#f15audhxxifjjc)" height="86.4141" id="Age" style="stroke:#A80036;stroke-width:1.5;" width="179" x="7" y="350.8594"/><ellipse cx="80.25" cy="366.8594" fill="#ADD1B2" rx="11" ry="11" style="stroke:#A80036;stroke-width:1.0;"/><path d="M82.5938,362.5313 C81.6563,362.0938 81.0625,361.9531 80.1875,361.9531 C77.5625,361.9531 75.5625,364.0313 75.5625,366.75 L75.5625,367.875 C75.5625,370.4531 77.6719,372.3438 80.5625,372.3438 C81.7813,372.3438 82.9375,372.0469 83.6875,371.5 C84.2656,371.0938 84.5938,370.6406 84.5938,370.25 C84.5938,369.7969 84.2031,369.4063 83.7344,369.4063 C83.5156,369.4063 83.3125,369.4844 83.125,369.6719 C82.6719,370.1563 82.6719,370.1563 82.4844,370.25 C82.0625,370.5156 81.375,370.6406 80.6094,370.6406 C78.5625,370.6406 77.2656,369.5469 77.2656,367.8438 L77.2656,366.75 C77.2656,364.9688 78.5156,363.6563 80.25,363.6563 C80.8281,363.6563 81.4375,363.8125 81.9063,364.0625 C82.3906,364.3438 82.5625,364.5625 82.6563,364.9688 C82.7188,365.375 82.75,365.5 82.8906,365.625 C83.0313,365.7656 83.2656,365.875 83.4844,365.875 C83.75,365.875 84.0156,365.7344 84.1875,365.5156 C84.2969,365.3594 84.3281,365.1719 84.3281,364.75 L84.3281,363.3281 C84.3281,362.8906 84.3125,362.7656 84.2188,362.6094 C84.0625,362.3438 83.7813,362.2031 83.4844,362.2031 C83.1875,362.2031 82.9844,362.2969 82.7656,362.6094 L82.5938,362.5313 Z " fill="#000000"/><text fill="#000000" font-family="sans-serif" font-size="12" lengthAdjust="spacing" textLength="24" x="100.75" y="371.0137">Age</text><line style="stroke:#A80036;stroke-width:1.5;" x1="8" x2="185" y1="382.8594" y2="382.8594"/><text fill="#000000" font-family="sans-serif" font-size="11" lengthAdjust="spacing" textLength="153" x="13" y="397.0698">Percent 65 and Older: float</text><text fill="#000000" font-family="sans-serif" font-size="11" lengthAdjust="spacing" textLength="167" x="13" y="409.8745">Percent Under 18 Years: float</text><text fill="#000000" font-family="sans-serif" font-size="11" lengthAdjust="spacing" textLength="160" x="13" y="422.6792">Percent Under 5 Years: float</text><line style="stroke:#A80036;stroke-width:1.5;" x1="8" x2="185" y1="429.2734" y2="429.2734"/><!--MD5=[3e7c08c6da448472712568ab49cd8e32]
class Education--><rect codeLine="25" fill="#FEFECE" filter="url(#f15audhxxifjjc)" height="73.6094" id="Education" style="stroke:#A80036;stroke-width:1.5;" width="207" x="221" y="356.8594"/><ellipse cx="291.25" cy="372.8594" fill="#ADD1B2" rx="11" ry="11" style="stroke:#A80036;stroke-width:1.0;"/><path d="M293.5938,368.5313 C292.6563,368.0938 292.0625,367.9531 291.1875,367.9531 C288.5625,367.9531 286.5625,370.0313 286.5625,372.75 L286.5625,373.875 C286.5625,376.4531 288.6719,378.3438 291.5625,378.3438 C292.7813,378.3438 293.9375,378.0469 294.6875,377.5 C295.2656,377.0938 295.5938,376.6406 295.5938,376.25 C295.5938,375.7969 295.2031,375.4063 294.7344,375.4063 C294.5156,375.4063 294.3125,375.4844 294.125,375.6719 C293.6719,376.1563 293.6719,376.1563 293.4844,376.25 C293.0625,376.5156 292.375,376.6406 291.6094,376.6406 C289.5625,376.6406 288.2656,375.5469 288.2656,373.8438 L288.2656,372.75 C288.2656,370.9688 289.5156,369.6563 291.25,369.6563 C291.8281,369.6563 292.4375,369.8125 292.9063,370.0625 C293.3906,370.3438 293.5625,370.5625 293.6563,370.9688 C293.7188,371.375 293.75,371.5 293.8906,371.625 C294.0313,371.7656 294.2656,371.875 294.4844,371.875 C294.75,371.875 295.0156,371.7344 295.1875,371.5156 C295.2969,371.3594 295.3281,371.1719 295.3281,370.75 L295.3281,369.3281 C295.3281,368.8906 295.3125,368.7656 295.2188,368.6094 C295.0625,368.3438 294.7813,368.2031 294.4844,368.2031 C294.1875,368.2031 293.9844,368.2969 293.7656,368.6094 L293.5938,368.5313 Z " fill="#000000"/><text fill="#000000" font-family="sans-serif" font-size="12" lengthAdjust="spacing" textLength="58" x="311.75" y="377.0137">Education</text><line style="stroke:#A80036;stroke-width:1.5;" x1="222" x2="427" y1="388.8594" y2="388.8594"/><text fill="#000000" font-family="sans-serif" font-size="11" lengthAdjust="spacing" textLength="195" x="227" y="403.0698">Bachelor's Degree or Higher: float</text><text fill="#000000" font-family="sans-serif" font-size="11" lengthAdjust="spacing" textLength="155" x="227" y="415.8745">High School or Higher: float</text><line style="stroke:#A80036;stroke-width:1.5;" x1="222" x2="427" y1="422.4688" y2="422.4688"/><!--MD5=[1c0f67851325b0845e0b86703ac36f9d]
class Employment--><rect codeLine="30" fill="#FEFECE" filter="url(#f15audhxxifjjc)" height="112.0234" id="Employment" style="stroke:#A80036;stroke-width:1.5;" width="310" x="463.5" y="337.8594"/><ellipse cx="577.25" cy="353.8594" fill="#ADD1B2" rx="11" ry="11" style="stroke:#A80036;stroke-width:1.0;"/><path d="M579.5938,349.5313 C578.6563,349.0938 578.0625,348.9531 577.1875,348.9531 C574.5625,348.9531 572.5625,351.0313 572.5625,353.75 L572.5625,354.875 C572.5625,357.4531 574.6719,359.3438 577.5625,359.3438 C578.7813,359.3438 579.9375,359.0469 580.6875,358.5 C581.2656,358.0938 581.5938,357.6406 581.5938,357.25 C581.5938,356.7969 581.2031,356.4063 580.7344,356.4063 C580.5156,356.4063 580.3125,356.4844 580.125,356.6719 C579.6719,357.1563 579.6719,357.1563 579.4844,357.25 C579.0625,357.5156 578.375,357.6406 577.6094,357.6406 C575.5625,357.6406 574.2656,356.5469 574.2656,354.8438 L574.2656,353.75 C574.2656,351.9688 575.5156,350.6563 577.25,350.6563 C577.8281,350.6563 578.4375,350.8125 578.9063,351.0625 C579.3906,351.3438 579.5625,351.5625 579.6563,351.9688 C579.7188,352.375 579.75,352.5 579.8906,352.625 C580.0313,352.7656 580.2656,352.875 580.4844,352.875 C580.75,352.875 581.0156,352.7344 581.1875,352.5156 C581.2969,352.3594 581.3281,352.1719 581.3281,351.75 L581.3281,350.3281 C581.3281,349.8906 581.3125,349.7656 581.2188,349.6094 C581.0625,349.3438 580.7813,349.2031 580.4844,349.2031 C580.1875,349.2031 579.9844,349.2969 579.7656,349.6094 L579.5938,349.5313 Z " fill="#000000"/><text fill="#000000" font-family="sans-serif" font-size="12" lengthAdjust="spacing" textLength="74" x="597.75" y="358.0137">Employment</text><line style="stroke:#A80036;stroke-width:1.5;" x1="464.5" x2="772.5" y1="369.8594" y2="369.8594"/><text fill="#000000" font-family="sans-serif" font-size="11" lengthAdjust="spacing" textLength="215" x="469.5" y="384.0698">Nonemployer Establishments: integer</text><text fill="#000000" font-family="sans-serif" font-size="11" lengthAdjust="spacing" textLength="219" x="469.5" y="396.8745">Private Non-farm Employment: integer</text><text fill="#000000" font-family="sans-serif" font-size="11" lengthAdjust="spacing" textLength="298" x="469.5" y="409.6792">Private Non-farm Employment Percent Change: float</text><text fill="#000000" font-family="sans-serif" font-size="11" lengthAdjust="spacing" textLength="233" x="469.5" y="422.4839">Private Non-farm Establishments: integer</text><text fill="#000000" font-family="sans-serif" font-size="11" lengthAdjust="spacing" textLength="51" x="469.5" y="435.2886">Firms: {}</text><line style="stroke:#A80036;stroke-width:1.5;" x1="464.5" x2="772.5" y1="441.8828" y2="441.8828"/><!--MD5=[a654eab6cc43a6363efd7b5f7462703d]
class Firms--><rect codeLine="38" fill="#FEFECE" filter="url(#f15audhxxifjjc)" height="137.6328" id="Firms" style="stroke:#A80036;stroke-width:1.5;" width="329" x="454" y="528.8594"/><ellipse cx="597.75" cy="544.8594" fill="#ADD1B2" rx="11" ry="11" style="stroke:#A80036;stroke-width:1.0;"/><path d="M600.0938,540.5313 C599.1563,540.0938 598.5625,539.9531 597.6875,539.9531 C595.0625,539.9531 593.0625,542.0313 593.0625,544.75 L593.0625,545.875 C593.0625,548.4531 595.1719,550.3438 598.0625,550.3438 C599.2813,550.3438 600.4375,550.0469 601.1875,549.5 C601.7656,549.0938 602.0938,548.6406 602.0938,548.25 C602.0938,547.7969 601.7031,547.4063 601.2344,547.4063 C601.0156,547.4063 600.8125,547.4844 600.625,547.6719 C600.1719,548.1563 600.1719,548.1563 599.9844,548.25 C599.5625,548.5156 598.875,548.6406 598.1094,548.6406 C596.0625,548.6406 594.7656,547.5469 594.7656,545.8438 L594.7656,544.75 C594.7656,542.9688 596.0156,541.6563 597.75,541.6563 C598.3281,541.6563 598.9375,541.8125 599.4063,542.0625 C599.8906,542.3438 600.0625,542.5625 600.1563,542.9688 C600.2188,543.375 600.25,543.5 600.3906,543.625 C600.5313,543.7656 600.7656,543.875 600.9844,543.875 C601.25,543.875 601.5156,543.7344 601.6875,543.5156 C601.7969,543.3594 601.8281,543.1719 601.8281,542.75 L601.8281,541.3281 C601.8281,540.8906 601.8125,540.7656 601.7188,540.6094 C601.5625,540.3438 601.2813,540.2031 600.9844,540.2031 C600.6875,540.2031 600.4844,540.2969 600.2656,540.6094 L600.0938,540.5313 Z " fill="#000000"/><text fill="#000000" font-family="sans-serif" font-size="12" lengthAdjust="spacing" textLength="33" x="618.25" y="549.0137">Firms</text><line style="stroke:#A80036;stroke-width:1.5;" x1="455" x2="782" y1="560.8594" y2="560.8594"/><text fill="#000000" font-family="sans-serif" font-size="11" lengthAdjust="spacing" textLength="168" x="460" y="575.0698">American Indian-Owned: float</text><text fill="#000000" font-family="sans-serif" font-size="11" lengthAdjust="spacing" textLength="107" x="460" y="587.8745">Asian-Owned: float</text><text fill="#000000" font-family="sans-serif" font-size="11" lengthAdjust="spacing" textLength="106" x="460" y="600.6792">Black-Owned: float</text><text fill="#000000" font-family="sans-serif" font-size="11" lengthAdjust="spacing" textLength="123" x="460" y="613.4839">Hispanic-Owned: float</text><text fill="#000000" font-family="sans-serif" font-size="11" lengthAdjust="spacing" textLength="317" x="460" y="626.2886">Native Hawaiian and Other Pacific Islander-Owned: float</text><text fill="#000000" font-family="sans-serif" font-size="11" lengthAdjust="spacing" textLength="76" x="460" y="639.0933">Total: integer</text><text fill="#000000" font-family="sans-serif" font-size="11" lengthAdjust="spacing" textLength="120" x="460" y="651.8979">Women-Owned: float</text><line style="stroke:#A80036;stroke-width:1.5;" x1="455" x2="782" y1="658.4922" y2="658.4922"/><!--MD5=[d6061eb08057acb02c9a3329af8cc584]
class Ethnicities--><rect codeLine="48" fill="#FEFECE" filter="url(#f15audhxxifjjc)" height="150.4375" id="Ethnicities" style="stroke:#A80036;stroke-width:1.5;" width="322" x="808.5" y="318.8594"/><ellipse cx="935.25" cy="334.8594" fill="#ADD1B2" rx="11" ry="11" style="stroke:#A80036;stroke-width:1.0;"/><path d="M937.5938,330.5313 C936.6563,330.0938 936.0625,329.9531 935.1875,329.9531 C932.5625,329.9531 930.5625,332.0313 930.5625,334.75 L930.5625,335.875 C930.5625,338.4531 932.6719,340.3438 935.5625,340.3438 C936.7813,340.3438 937.9375,340.0469 938.6875,339.5 C939.2656,339.0938 939.5938,338.6406 939.5938,338.25 C939.5938,337.7969 939.2031,337.4063 938.7344,337.4063 C938.5156,337.4063 938.3125,337.4844 938.125,337.6719 C937.6719,338.1563 937.6719,338.1563 937.4844,338.25 C937.0625,338.5156 936.375,338.6406 935.6094,338.6406 C933.5625,338.6406 932.2656,337.5469 932.2656,335.8438 L932.2656,334.75 C932.2656,332.9688 933.5156,331.6563 935.25,331.6563 C935.8281,331.6563 936.4375,331.8125 936.9063,332.0625 C937.3906,332.3438 937.5625,332.5625 937.6563,332.9688 C937.7188,333.375 937.75,333.5 937.8906,333.625 C938.0313,333.7656 938.2656,333.875 938.4844,333.875 C938.75,333.875 939.0156,333.7344 939.1875,333.5156 C939.2969,333.3594 939.3281,333.1719 939.3281,332.75 L939.3281,331.3281 C939.3281,330.8906 939.3125,330.7656 939.2188,330.6094 C939.0625,330.3438 938.7813,330.2031 938.4844,330.2031 C938.1875,330.2031 937.9844,330.2969 937.7656,330.6094 L937.5938,330.5313 Z " fill="#000000"/><text fill="#000000" font-family="sans-serif" font-size="12" lengthAdjust="spacing" textLength="60" x="955.75" y="339.0137">Ethnicities</text><line style="stroke:#A80036;stroke-width:1.5;" x1="809.5" x2="1129.5" y1="350.8594" y2="350.8594"/><text fill="#000000" font-family="sans-serif" font-size="11" lengthAdjust="spacing" textLength="268" x="814.5" y="365.0698">American Indian and Alaska Native Alone: float</text><text fill="#000000" font-family="sans-serif" font-size="11" lengthAdjust="spacing" textLength="100" x="814.5" y="377.8745">Asian Alone: float</text><text fill="#000000" font-family="sans-serif" font-size="11" lengthAdjust="spacing" textLength="99" x="814.5" y="390.6792">Black Alone: float</text><text fill="#000000" font-family="sans-serif" font-size="11" lengthAdjust="spacing" textLength="132" x="814.5" y="403.4839">Hispanic or Latino: float</text><text fill="#000000" font-family="sans-serif" font-size="11" lengthAdjust="spacing" textLength="310" x="814.5" y="416.2886">Native Hawaiian and Other Pacific Islander Alone: float</text><text fill="#000000" font-family="sans-serif" font-size="11" lengthAdjust="spacing" textLength="140" x="814.5" y="429.0933">Two or More Races: float</text><text fill="#000000" font-family="sans-serif" font-size="11" lengthAdjust="spacing" textLength="102" x="814.5" y="441.8979">White Alone: float</text><text fill="#000000" font-family="sans-serif" font-size="11" lengthAdjust="spacing" textLength="231" x="814.5" y="454.7026">White Alone, not Hispanic or Latino: float</text><line style="stroke:#A80036;stroke-width:1.5;" x1="809.5" x2="1129.5" y1="461.2969" y2="461.2969"/><!--MD5=[e8103f7b76da96df415f1492e5801c38]
class Housing--><rect codeLine="59" fill="#FEFECE" filter="url(#f15audhxxifjjc)" height="124.8281" id="Housing" style="stroke:#A80036;stroke-width:1.5;" width="283" x="1166" y="331.3594"/><ellipse cx="1278.75" cy="347.3594" fill="#ADD1B2" rx="11" ry="11" style="stroke:#A80036;stroke-width:1.0;"/><path d="M1281.0938,343.0313 C1280.1563,342.5938 1279.5625,342.4531 1278.6875,342.4531 C1276.0625,342.4531 1274.0625,344.5313 1274.0625,347.25 L1274.0625,348.375 C1274.0625,350.9531 1276.1719,352.8438 1279.0625,352.8438 C1280.2813,352.8438 1281.4375,352.5469 1282.1875,352 C1282.7656,351.5938 1283.0938,351.1406 1283.0938,350.75 C1283.0938,350.2969 1282.7031,349.9063 1282.2344,349.9063 C1282.0156,349.9063 1281.8125,349.9844 1281.625,350.1719 C1281.1719,350.6563 1281.1719,350.6563 1280.9844,350.75 C1280.5625,351.0156 1279.875,351.1406 1279.1094,351.1406 C1277.0625,351.1406 1275.7656,350.0469 1275.7656,348.3438 L1275.7656,347.25 C1275.7656,345.4688 1277.0156,344.1563 1278.75,344.1563 C1279.3281,344.1563 1279.9375,344.3125 1280.4063,344.5625 C1280.8906,344.8438 1281.0625,345.0625 1281.1563,345.4688 C1281.2188,345.875 1281.25,346 1281.3906,346.125 C1281.5313,346.2656 1281.7656,346.375 1281.9844,346.375 C1282.25,346.375 1282.5156,346.2344 1282.6875,346.0156 C1282.7969,345.8594 1282.8281,345.6719 1282.8281,345.25 L1282.8281,343.8281 C1282.8281,343.3906 1282.8125,343.2656 1282.7188,343.1094 C1282.5625,342.8438 1282.2813,342.7031 1281.9844,342.7031 C1281.6875,342.7031 1281.4844,342.7969 1281.2656,343.1094 L1281.0938,343.0313 Z " fill="#000000"/><text fill="#000000" font-family="sans-serif" font-size="12" lengthAdjust="spacing" textLength="49" x="1299.25" y="351.5137">Housing</text><line style="stroke:#A80036;stroke-width:1.5;" x1="1167" x2="1448" y1="363.3594" y2="363.3594"/><text fill="#000000" font-family="sans-serif" font-size="11" lengthAdjust="spacing" textLength="154" x="1172" y="377.5698">Homeownership Rate: float</text><text fill="#000000" font-family="sans-serif" font-size="11" lengthAdjust="spacing" textLength="114" x="1172" y="390.3745">Households: integer</text><text fill="#000000" font-family="sans-serif" font-size="11" lengthAdjust="spacing" textLength="125" x="1172" y="403.1792">Housing Units: integer</text><text fill="#000000" font-family="sans-serif" font-size="11" lengthAdjust="spacing" textLength="271" x="1172" y="415.9839">Median Value of Owner-Occupied Units: integer</text><text fill="#000000" font-family="sans-serif" font-size="11" lengthAdjust="spacing" textLength="163" x="1172" y="428.7886">Persons per Household: float</text><text fill="#000000" font-family="sans-serif" font-size="11" lengthAdjust="spacing" textLength="192" x="1172" y="441.5933">Units in Multi-Unit Structures: float</text><line style="stroke:#A80036;stroke-width:1.5;" x1="1167" x2="1448" y1="448.1875" y2="448.1875"/><!--MD5=[ca8d74022477d15c65f63391dcd50b2e]
class Income--><rect codeLine="68" fill="#FEFECE" filter="url(#f15audhxxifjjc)" height="86.4141" id="Income" style="stroke:#A80036;stroke-width:1.5;" width="210" x="1484.5" y="350.8594"/><ellipse cx="1563.25" cy="366.8594" fill="#ADD1B2" rx="11" ry="11" style="stroke:#A80036;stroke-width:1.0;"/><path d="M1565.5938,362.5313 C1564.6563,362.0938 1564.0625,361.9531 1563.1875,361.9531 C1560.5625,361.9531 1558.5625,364.0313 1558.5625,366.75 L1558.5625,367.875 C1558.5625,370.4531 1560.6719,372.3438 1563.5625,372.3438 C1564.7813,372.3438 1565.9375,372.0469 1566.6875,371.5 C1567.2656,371.0938 1567.5938,370.6406 1567.5938,370.25 C1567.5938,369.7969 1567.2031,369.4063 1566.7344,369.4063 C1566.5156,369.4063 1566.3125,369.4844 1566.125,369.6719 C1565.6719,370.1563 1565.6719,370.1563 1565.4844,370.25 C1565.0625,370.5156 1564.375,370.6406 1563.6094,370.6406 C1561.5625,370.6406 1560.2656,369.5469 1560.2656,367.8438 L1560.2656,366.75 C1560.2656,364.9688 1561.5156,363.6563 1563.25,363.6563 C1563.8281,363.6563 1564.4375,363.8125 1564.9063,364.0625 C1565.3906,364.3438 1565.5625,364.5625 1565.6563,364.9688 C1565.7188,365.375 1565.75,365.5 1565.8906,365.625 C1566.0313,365.7656 1566.2656,365.875 1566.4844,365.875 C1566.75,365.875 1567.0156,365.7344 1567.1875,365.5156 C1567.2969,365.3594 1567.3281,365.1719 1567.3281,364.75 L1567.3281,363.3281 C1567.3281,362.8906 1567.3125,362.7656 1567.2188,362.6094 C1567.0625,362.3438 1566.7813,362.2031 1566.4844,362.2031 C1566.1875,362.2031 1565.9844,362.2969 1565.7656,362.6094 L1565.5938,362.5313 Z " fill="#000000"/><text fill="#000000" font-family="sans-serif" font-size="12" lengthAdjust="spacing" textLength="44" x="1583.75" y="371.0137">Income</text><line style="stroke:#A80036;stroke-width:1.5;" x1="1485.5" x2="1693.5" y1="382.8594" y2="382.8594"/><text fill="#000000" font-family="sans-serif" font-size="11" lengthAdjust="spacing" textLength="192" x="1490.5" y="397.0698">Median Houseold Income: integer</text><text fill="#000000" font-family="sans-serif" font-size="11" lengthAdjust="spacing" textLength="152" x="1490.5" y="409.8745">Per Capita Income: integer</text><text fill="#000000" font-family="sans-serif" font-size="11" lengthAdjust="spacing" textLength="198" x="1490.5" y="422.6792">Persons Below Poverty Level: float</text><line style="stroke:#A80036;stroke-width:1.5;" x1="1485.5" x2="1693.5" y1="429.2734" y2="429.2734"/><!--MD5=[69d9f177ab63a0247bd0d93579307df6]
class Miscellaneous--><rect codeLine="74" fill="#FEFECE" filter="url(#f15audhxxifjjc)" height="137.6328" id="Miscellaneous" style="stroke:#A80036;stroke-width:1.5;" width="262" x="1729.5" y="324.8594"/><ellipse cx="1813.75" cy="340.8594" fill="#ADD1B2" rx="11" ry="11" style="stroke:#A80036;stroke-width:1.0;"/><path d="M1816.0938,336.5313 C1815.1563,336.0938 1814.5625,335.9531 1813.6875,335.9531 C1811.0625,335.9531 1809.0625,338.0313 1809.0625,340.75 L1809.0625,341.875 C1809.0625,344.4531 1811.1719,346.3438 1814.0625,346.3438 C1815.2813,346.3438 1816.4375,346.0469 1817.1875,345.5 C1817.7656,345.0938 1818.0938,344.6406 1818.0938,344.25 C1818.0938,343.7969 1817.7031,343.4063 1817.2344,343.4063 C1817.0156,343.4063 1816.8125,343.4844 1816.625,343.6719 C1816.1719,344.1563 1816.1719,344.1563 1815.9844,344.25 C1815.5625,344.5156 1814.875,344.6406 1814.1094,344.6406 C1812.0625,344.6406 1810.7656,343.5469 1810.7656,341.8438 L1810.7656,340.75 C1810.7656,338.9688 1812.0156,337.6563 1813.75,337.6563 C1814.3281,337.6563 1814.9375,337.8125 1815.4063,338.0625 C1815.8906,338.3438 1816.0625,338.5625 1816.1563,338.9688 C1816.2188,339.375 1816.25,339.5 1816.3906,339.625 C1816.5313,339.7656 1816.7656,339.875 1816.9844,339.875 C1817.25,339.875 1817.5156,339.7344 1817.6875,339.5156 C1817.7969,339.3594 1817.8281,339.1719 1817.8281,338.75 L1817.8281,337.3281 C1817.8281,336.8906 1817.8125,336.7656 1817.7188,336.6094 C1817.5625,336.3438 1817.2813,336.2031 1816.9844,336.2031 C1816.6875,336.2031 1816.4844,336.2969 1816.2656,336.6094 L1816.0938,336.5313 Z " fill="#000000"/><text fill="#000000" font-family="sans-serif" font-size="12" lengthAdjust="spacing" textLength="85" x="1834.25" y="345.0137">Miscellaneous</text><line style="stroke:#A80036;stroke-width:1.5;" x1="1730.5" x2="1990.5" y1="356.8594" y2="356.8594"/><text fill="#000000" font-family="sans-serif" font-size="11" lengthAdjust="spacing" textLength="104" x="1735.5" y="371.0698">Foreign Born: float</text><text fill="#000000" font-family="sans-serif" font-size="11" lengthAdjust="spacing" textLength="90" x="1735.5" y="383.8745">Land Area: float</text><text fill="#000000" font-family="sans-serif" font-size="11" lengthAdjust="spacing" textLength="250" x="1735.5" y="396.6792">Language Other than English at Home: float</text><text fill="#000000" font-family="sans-serif" font-size="11" lengthAdjust="spacing" textLength="213" x="1735.5" y="409.4839">Living in Same House +1 Years: float</text><text fill="#000000" font-family="sans-serif" font-size="11" lengthAdjust="spacing" textLength="183" x="1735.5" y="422.2886">Mean Travel Time to Work: float</text><text fill="#000000" font-family="sans-serif" font-size="11" lengthAdjust="spacing" textLength="122" x="1735.5" y="435.0933">Percent Female: float</text><text fill="#000000" font-family="sans-serif" font-size="11" lengthAdjust="spacing" textLength="100" x="1735.5" y="447.8979">Veterans: integer</text><line style="stroke:#A80036;stroke-width:1.5;" x1="1730.5" x2="1990.5" y1="454.4922" y2="454.4922"/><!--MD5=[fc83106656ad84484be83b4c8db51606]
class Population--><rect codeLine="84" fill="#FEFECE" filter="url(#f15audhxxifjjc)" height="99.2188" id="Population" style="stroke:#A80036;stroke-width:1.5;" width="197" x="2027" y="344.3594"/><ellipse cx="2090.75" cy="360.3594" fill="#ADD1B2" rx="11" ry="11" style="stroke:#A80036;stroke-width:1.0;"/><path d="M2093.0938,356.0313 C2092.1563,355.5938 2091.5625,355.4531 2090.6875,355.4531 C2088.0625,355.4531 2086.0625,357.5313 2086.0625,360.25 L2086.0625,361.375 C2086.0625,363.9531 2088.1719,365.8438 2091.0625,365.8438 C2092.2813,365.8438 2093.4375,365.5469 2094.1875,365 C2094.7656,364.5938 2095.0938,364.1406 2095.0938,363.75 C2095.0938,363.2969 2094.7031,362.9063 2094.2344,362.9063 C2094.0156,362.9063 2093.8125,362.9844 2093.625,363.1719 C2093.1719,363.6563 2093.1719,363.6563 2092.9844,363.75 C2092.5625,364.0156 2091.875,364.1406 2091.1094,364.1406 C2089.0625,364.1406 2087.7656,363.0469 2087.7656,361.3438 L2087.7656,360.25 C2087.7656,358.4688 2089.0156,357.1563 2090.75,357.1563 C2091.3281,357.1563 2091.9375,357.3125 2092.4063,357.5625 C2092.8906,357.8438 2093.0625,358.0625 2093.1563,358.4688 C2093.2188,358.875 2093.25,359 2093.3906,359.125 C2093.5313,359.2656 2093.7656,359.375 2093.9844,359.375 C2094.25,359.375 2094.5156,359.2344 2094.6875,359.0156 C2094.7969,358.8594 2094.8281,358.6719 2094.8281,358.25 L2094.8281,356.8281 C2094.8281,356.3906 2094.8125,356.2656 2094.7188,356.1094 C2094.5625,355.8438 2094.2813,355.7031 2093.9844,355.7031 C2093.6875,355.7031 2093.4844,355.7969 2093.2656,356.1094 L2093.0938,356.0313 Z " fill="#000000"/><text fill="#000000" font-family="sans-serif" font-size="12" lengthAdjust="spacing" textLength="61" x="2111.25" y="364.5137">Population</text><line style="stroke:#A80036;stroke-width:1.5;" x1="2028" x2="2223" y1="376.3594" y2="376.3594"/><text fill="#000000" font-family="sans-serif" font-size="11" lengthAdjust="spacing" textLength="138" x="2033" y="390.5698">2010 Population: integer</text><text fill="#000000" font-family="sans-serif" font-size="11" lengthAdjust="spacing" textLength="138" x="2033" y="403.3745">2014 Population: integer</text><text fill="#000000" font-family="sans-serif" font-size="11" lengthAdjust="spacing" textLength="185" x="2033" y="416.1792">Population Percent Change: float</text><text fill="#000000" font-family="sans-serif" font-size="11" lengthAdjust="spacing" textLength="185" x="2033" y="428.9839">Population per Square Mile: float</text><line style="stroke:#A80036;stroke-width:1.5;" x1="2028" x2="2223" y1="435.5781" y2="435.5781"/><!--MD5=[b6587b47cb08bf742060086bd1cd0b7e]
class Sales--><rect codeLine="91" fill="#FEFECE" filter="url(#f15audhxxifjjc)" height="99.2188" id="Sales" style="stroke:#A80036;stroke-width:1.5;" width="297" x="2259" y="344.3594"/><ellipse cx="2386.75" cy="360.3594" fill="#ADD1B2" rx="11" ry="11" style="stroke:#A80036;stroke-width:1.0;"/><path d="M2389.0938,356.0313 C2388.1563,355.5938 2387.5625,355.4531 2386.6875,355.4531 C2384.0625,355.4531 2382.0625,357.5313 2382.0625,360.25 L2382.0625,361.375 C2382.0625,363.9531 2384.1719,365.8438 2387.0625,365.8438 C2388.2813,365.8438 2389.4375,365.5469 2390.1875,365 C2390.7656,364.5938 2391.0938,364.1406 2391.0938,363.75 C2391.0938,363.2969 2390.7031,362.9063 2390.2344,362.9063 C2390.0156,362.9063 2389.8125,362.9844 2389.625,363.1719 C2389.1719,363.6563 2389.1719,363.6563 2388.9844,363.75 C2388.5625,364.0156 2387.875,364.1406 2387.1094,364.1406 C2385.0625,364.1406 2383.7656,363.0469 2383.7656,361.3438 L2383.7656,360.25 C2383.7656,358.4688 2385.0156,357.1563 2386.75,357.1563 C2387.3281,357.1563 2387.9375,357.3125 2388.4063,357.5625 C2388.8906,357.8438 2389.0625,358.0625 2389.1563,358.4688 C2389.2188,358.875 2389.25,359 2389.3906,359.125 C2389.5313,359.2656 2389.7656,359.375 2389.9844,359.375 C2390.25,359.375 2390.5156,359.2344 2390.6875,359.0156 C2390.7969,358.8594 2390.8281,358.6719 2390.8281,358.25 L2390.8281,356.8281 C2390.8281,356.3906 2390.8125,356.2656 2390.7188,356.1094 C2390.5625,355.8438 2390.2813,355.7031 2389.9844,355.7031 C2389.6875,355.7031 2389.4844,355.7969 2389.2656,356.1094 L2389.0938,356.0313 Z " fill="#000000"/><text fill="#000000" font-family="sans-serif" font-size="12" lengthAdjust="spacing" textLength="33" x="2407.25" y="364.5137">Sales</text><line style="stroke:#A80036;stroke-width:1.5;" x1="2260" x2="2555" y1="376.3594" y2="376.3594"/><text fill="#000000" font-family="sans-serif" font-size="11" lengthAdjust="spacing" textLength="285" x="2265" y="390.5698">Accommodation and Food Services Sales: integer</text><text fill="#000000" font-family="sans-serif" font-size="11" lengthAdjust="spacing" textLength="204" x="2265" y="403.3745">Merchant Wholesaler Sales: integer</text><text fill="#000000" font-family="sans-serif" font-size="11" lengthAdjust="spacing" textLength="116" x="2265" y="416.1792">Retail Sales: integer</text><text fill="#000000" font-family="sans-serif" font-size="11" lengthAdjust="spacing" textLength="179" x="2265" y="428.9839">Retail Sales per Capita: integer</text><line style="stroke:#A80036;stroke-width:1.5;" x1="2260" x2="2555" y1="435.5781" y2="435.5781"/><!--MD5=[26145d4a35ca9c1514f7b7b76bb057c5]
reverse link County to Age--><path codeLine="99" d="M1237.67,170.8144 C1026.04,188.0114 394.579,244.3934 203.5,318.8594 C183.718,326.5684 164.037,338.5934 147.05,350.7254 " fill="none" id="County-backto-Age" style="stroke:#A80036;stroke-width:1.0;"/><polygon fill="#FFFFFF" points="1250.7,169.7624,1244.3985,166.2566,1238.7387,170.725,1245.0402,174.2308,1250.7,169.7624" style="stroke:#A80036;stroke-width:1.0;"/><!--MD5=[cb644cd58b3d93607fdbfa322a758242]
reverse link County to Education--><path codeLine="100" d="M1237.58,169.1264 C1087.92,179.0424 727.354,212.8794 446.5,318.8594 C421.469,328.3044 395.844,342.9514 374.582,356.7294 " fill="none" id="County-backto-Education" style="stroke:#A80036;stroke-width:1.0;"/><polygon fill="#FFFFFF" points="1250.97,168.2664,1244.7272,164.6569,1238.9944,169.0313,1245.2372,172.6407,1250.97,168.2664" style="stroke:#A80036;stroke-width:1.0;"/><!--MD5=[1e8e15c48831186550bdeec9f9152560]
reverse link County to Employment--><path codeLine="101" d="M1238.09,183.2794 C1138.23,209.6714 948.765,262.0464 791.5,318.8594 C775.524,324.6314 758.9,331.1114 742.551,337.7734 " fill="none" id="County-backto-Employment" style="stroke:#A80036;stroke-width:1.0;"/><polygon fill="#FFFFFF" points="1250.69,179.9604,1243.8685,177.6221,1239.0865,183.0195,1245.9079,185.3578,1250.69,179.9604" style="stroke:#A80036;stroke-width:1.0;"/><!--MD5=[b1a0e790fccdfe22024b0c0f44321c1d]
reverse link Employment to Firms--><path codeLine="102" d="M618.5,463.2444 C618.5,484.3754 618.5,507.6404 618.5,528.7534 " fill="none" id="Employment-backto-Firms" style="stroke:#A80036;stroke-width:1.0;"/><polygon fill="#FFFFFF" points="618.5,450.0564,614.5,456.0564,618.5,462.0564,622.5,456.0564,618.5,450.0564" style="stroke:#A80036;stroke-width:1.0;"/><!--MD5=[d6e2e80ab0ca8351d9bfdd10282fce1e]
reverse link County to Ethnicities--><path codeLine="103" d="M1239.93,210.8414 C1194.1,241.6874 1132.48,283.1624 1079.63,318.7314 " fill="none" id="County-backto-Ethnicities" style="stroke:#A80036;stroke-width:1.0;"/><polygon fill="#FFFFFF" points="1250.93,203.4374,1243.719,203.4686,1240.9743,210.1369,1248.1853,210.1057,1250.93,203.4374" style="stroke:#A80036;stroke-width:1.0;"/><!--MD5=[39bf504c8cf2837c814acbce2525f529]
reverse link County to Housing--><path codeLine="104" d="M1307.5,272.1214 C1307.5,292.3814 1307.5,312.9374 1307.5,331.2074 " fill="none" id="County-backto-Housing" style="stroke:#A80036;stroke-width:1.0;"/><polygon fill="#FFFFFF" points="1307.5,258.8774,1303.5,264.8774,1307.5,270.8774,1311.5,264.8774,1307.5,258.8774" style="stroke:#A80036;stroke-width:1.0;"/><!--MD5=[6257258fba0a44a5fcd7968601d01ec9]
reverse link County to Income--><path codeLine="105" d="M1374.58,219.4724 C1424.36,259.6324 1491.28,313.6204 1537.15,350.6234 " fill="none" id="County-backto-Income" style="stroke:#A80036;stroke-width:1.0;"/><polygon fill="#FFFFFF" points="1364.23,211.1234,1366.3902,218.0033,1373.5718,218.6554,1371.4116,211.7754,1364.23,211.1234" style="stroke:#A80036;stroke-width:1.0;"/><!--MD5=[a68072e777e0976a951a27d6a58e1719]
reverse link County to Miscellaneous--><path codeLine="106" d="M1376.54,189.1174 C1457.84,217.6454 1596.5,268.0344 1712.5,318.8594 C1718.03,321.2804 1723.64,323.8024 1729.29,326.3924 " fill="none" id="County-backto-Miscellaneous" style="stroke:#A80036;stroke-width:1.0;"/><polygon fill="#FFFFFF" points="1364.24,184.8144,1368.5856,190.569,1375.569,188.7709,1371.2233,183.0163,1364.24,184.8144" style="stroke:#A80036;stroke-width:1.0;"/><!--MD5=[4585b4b22551ee6a6d9f6f01ffcdabbe]
reverse link County to Population--><path codeLine="107" d="M1377.22,172.3804 C1506.2,187.1354 1788.98,227.8134 2009.5,318.8594 C2025.95,325.6514 2042.65,334.7564 2058.06,344.2544 " fill="none" id="County-backto-Population" style="stroke:#A80036;stroke-width:1.0;"/><polygon fill="#FFFFFF" points="1364.12,170.9104,1369.6389,175.5516,1376.0458,172.2424,1370.5269,167.6011,1364.12,170.9104" style="stroke:#A80036;stroke-width:1.0;"/><!--MD5=[048726e7609d1915ba6eb7798f08837e]
reverse link County to Sales--><path codeLine="108" d="M1377.3,170.6794 C1534.47,183.9814 1926.98,224.6214 2241.5,318.8594 C2264.02,325.6064 2287.49,334.6934 2309.45,344.1874 " fill="none" id="County-backto-Sales" style="stroke:#A80036;stroke-width:1.0;"/><polygon fill="#FFFFFF" points="1364.16,169.5854,1369.805,174.0725,1376.1181,170.5876,1370.4731,166.1005,1364.16,169.5854" style="stroke:#A80036;stroke-width:1.0;"/><!--MD5=[4d26f7a5a36811bf5f0b164699a24ba0]
@startuml
title US Counties Census \nUML Class Notation\n

class County      {
  County: text
  State: text
  - -
  Age: {}
  Education: {}
  Employment: {}
  Ethnicities: {}
  Housing: {}
  Income: {}
  Miscellaneous: {}
  Population: {}
  Sales: {}
}

class Age    {
  Percent 65 and Older: float
  Percent Under 18 Years: float
  Percent Under 5 Years: float
}


class Education    {
  Bachelor's Degree or Higher: float
  High School or Higher: float
}

class Employment    {
  Nonemployer Establishments: integer
  Private Non-farm Employment: integer
  Private Non-farm Employment Percent Change: float
  Private Non-farm Establishments: integer
  Firms: {}
}

class Firms    {
  American Indian-Owned: float
  Asian-Owned: float
  Black-Owned: float
  Hispanic-Owned: float
  Native Hawaiian and Other Pacific Islander-Owned: float
  Total: integer
  Women-Owned: float
}

class Ethnicities    {
  American Indian and Alaska Native Alone: float
  Asian Alone: float
  Black Alone: float
  Hispanic or Latino: float
  Native Hawaiian and Other Pacific Islander Alone: float
  Two or More Races: float
  White Alone: float
  White Alone, not Hispanic or Latino: float
}

class Housing    {
  Homeownership Rate: float
  Households: integer
  Housing Units: integer
  Median Value of Owner-Occupied Units: integer
  Persons per Household: float
  Units in Multi-Unit Structures: float
}

class Income    {
  Median Houseold Income: integer
  Per Capita Income: integer
  Persons Below Poverty Level: float
}

class Miscellaneous    {
  Foreign Born: float
  Land Area: float
  Language Other than English at Home: float
  Living in Same House +1 Years: float
  Mean Travel Time to Work: float
  Percent Female: float
  Veterans: integer
}

class Population    {
  2010 Population: integer
  2014 Population: integer
  Population Percent Change: float
  Population per Square Mile: float
}

class Sales    {
  Accommodation and Food Services Sales: integer
  Merchant Wholesaler Sales: integer
  Retail Sales: integer
  Retail Sales per Capita: integer
}


County o- -  Age  
County o- -  Education  
County o- -  Employment  
Employment o- -  Firms  
County o- -  Ethnicities  
County o- -  Housing 
County o- -  Income 
County o- -  Miscellaneous 
County o- -  Population 
County o- -  Sales
@enduml

PlantUML version 1.2021.13beta7(Unknown compile time)
(GPL source distribution)
Java Runtime: Java(TM) SE Runtime Environment
JVM: Java HotSpot(TM) 64-Bit Server VM
Default Encoding: UTF-8
Language: en
Country: US
--></g></svg>